HIERARCHY
ROOT Hips
{
	OFFSET 0.000000 0.000000 0.000000
	CHANNELS 6 Xposition Yposition Zposition Xrotation Yrotation Zrotation
	JOINT LeftUpLeg_virtual
	{
		OFFSET 0.000000 0.000000 0.000000
		CHANNELS 3 Xrotation Yrotation Zrotation
		JOINT LeftUpLeg
		{
			OFFSET 13.026900 -6.336304 -1.092800
			CHANNELS 3 Xrotation Yrotation Zrotation
			JOINT LeftLeg
			{
				OFFSET 0.524474 -46.096886 9.782700
				CHANNELS 3 Xrotation Yrotation Zrotation
				JOINT LeftFoot
				{
					OFFSET -0.524474 -53.427422 -12.948200
					CHANNELS 3 Xrotation Yrotation Zrotation
					JOINT LeftToeBase
					{
						OFFSET 0.192200 -14.009700 16.364100
						CHANNELS 3 Xrotation Yrotation Zrotation
						JOINT LeftToe_End
						{
							OFFSET -1.784700 -0.561700 9.474800
							CHANNELS 3 Xrotation Yrotation Zrotation
							End Site
							{
								OFFSET 0 0 0
							}
						}
					}
				}
			}
		}
	}
	JOINT RightUpLeg_virtual
	{
		OFFSET 0.000000 0.000000 0.000000
		CHANNELS 3 Xrotation Yrotation Zrotation
		JOINT RightUpLeg
		{
			OFFSET -12.883000 -6.336304 -1.092800
			CHANNELS 3 Xrotation Yrotation Zrotation
			JOINT RightLeg
			{
				OFFSET -0.524587 -46.096825 9.782800
				CHANNELS 3 Xrotation Yrotation Zrotation
				JOINT RightFoot
				{
					OFFSET 0.524587 -53.427383 -12.948300
					CHANNELS 3 Xrotation Yrotation Zrotation
					JOINT RightToeBase
					{
						OFFSET -0.192200 -14.009700 16.364100
						CHANNELS 3 Xrotation Yrotation Zrotation
						JOINT RightToe_End
						{
							OFFSET 1.784700 -0.561700 9.474800
							CHANNELS 3 Xrotation Yrotation Zrotation
							End Site
							{
								OFFSET 0 0 0
							}
						}
					}
				}
			}
		}
	}
	JOINT Spine_virtual
	{
		OFFSET 0.000000 0.000000 0.000000
		CHANNELS 3 Xrotation Yrotation Zrotation
		JOINT Spine
		{
			OFFSET 0.072000 7.257294 -0.789700
			CHANNELS 3 Xrotation Yrotation Zrotation
			JOINT Spine1
			{
				OFFSET 0.000000 12.508769 -0.658067
				CHANNELS 3 Xrotation Yrotation Zrotation
				JOINT Spine1_split
				{
					OFFSET 0.000000 12.508769 -0.658067
					CHANNELS 3 Xrotation Yrotation Zrotation
					JOINT Spine2
					{
						OFFSET 0.000000 12.508769 -0.658067
						CHANNELS 3 Xrotation Yrotation Zrotation
						JOINT Neck_virtual
						{
							OFFSET 0.000000 0.000000 0.000000
							CHANNELS 3 Xrotation Yrotation Zrotation
							JOINT Neck
							{
								OFFSET 0.000000 14.033295 7.520400
								CHANNELS 3 Xrotation Yrotation Zrotation
								JOINT Head
								{
									OFFSET 0.000000 8.198502 5.703100
									CHANNELS 3 Xrotation Yrotation Zrotation
									JOINT HeadTop_End
									{
										OFFSET 0.000000 17.760803 13.332701
										CHANNELS 3 Xrotation Yrotation Zrotation
										End Site
										{
											OFFSET 0 0 0
										}
									}
								}
							}
						}
						JOINT LeftShoulder_virtual
						{
							OFFSET 0.000000 0.000000 0.000000
							CHANNELS 3 Xrotation Yrotation Zrotation
							JOINT LeftShoulder
							{
								OFFSET 6.292450 5.785301 -0.669000
								CHANNELS 3 Xrotation Yrotation Zrotation
								JOINT LeftShoulder_split
								{
									OFFSET 6.292450 5.785301 -0.669000
									CHANNELS 3 Xrotation Yrotation Zrotation
									JOINT LeftArm
									{
										OFFSET 13.907140 -6.093903 1.965100
										CHANNELS 3 Xrotation Yrotation Zrotation
										JOINT LeftForeArm
										{
											OFFSET 34.140198 0.000000 0.000000
											CHANNELS 3 Xrotation Yrotation Zrotation
											JOINT LeftHand
											{
												OFFSET 40.960209 0.000000 0.000000
												CHANNELS 3 Xrotation Yrotation Zrotation
												End Site
												{
													OFFSET 0 0 0
												}
											}
										}
									}
								}
							}
						}
						JOINT RightShoulder_virtual
						{
							OFFSET 0.000000 0.000000 0.000000
							CHANNELS 3 Xrotation Yrotation Zrotation
							JOINT RightShoulder
							{
								OFFSET -6.292450 5.785301 -0.669000
								CHANNELS 3 Xrotation Yrotation Zrotation
								JOINT RightShoulder_split
								{
									OFFSET -6.292450 5.785301 -0.669000
									CHANNELS 3 Xrotation Yrotation Zrotation
									JOINT RightArm
									{
										OFFSET -13.907140 -6.093903 1.965100
										CHANNELS 3 Xrotation Yrotation Zrotation
										JOINT RightForeArm
										{
											OFFSET -34.140198 0.000000 0.000000
											CHANNELS 3 Xrotation Yrotation Zrotation
											JOINT RightHand
											{
												OFFSET -40.960209 0.000000 0.000000
												CHANNELS 3 Xrotation Yrotation Zrotation
												End Site
												{
													OFFSET 0 0 0
												}
											}
										}
									}
								}
							}
						}
					}
				}
			}
		}
	}
}
MOTION
Frames: 9
Frame Time: 0.03333333
14.484360 72.463722 -56.474289 0.000000 0.000000 0.000000 39.375252 -25.569769 10.628446 -43.164405 -10.235735 -3.774540 93.272066 1.182133 -2.754333 12.946049 0.229075 -8.259778 -3.450132 -12.112314 -22.743285 0.000000 0.000000 0.000000 41.745344 -24.449393 10.384509 -79.973456 -21.855518 -16.322045 92.251206 -14.152200 5.325518 -26.280500 -6.177363 5.507964 -8.307835 -0.669439 -0.151147 0.000000 0.000000 0.000000 37.584280 -25.439036 11.377604 40.352081 8.774499 3.533218 4.787152 1.996398 0.699432 0.113265 -0.214904 1.890892 0.000000 0.000000 0.000000 6.640757 2.344647 1.142176 -8.850146 -4.406576 0.933080 -21.857439 -17.131566 -6.273033 0.000000 0.000000 0.000000 5.330124 2.288088 0.618416 4.255326 -22.941453 -8.603358 5.529198 0.621524 -3.848615 -24.702525 -19.879962 -37.852219 1.555565 -36.474679 0.340658 0.000000 0.000000 0.000000 4.980111 2.098894 1.353743 1.042762 28.929977 12.492864 -0.379654 2.191322 -0.706163 -52.122581 47.282039 19.457314 -1.606568 16.264533 1.114991 0.000000 0.000000 0.000000 
14.769226 73.297264 -56.190453 0.000000 0.000000 0.000000 38.546541 -27.500088 11.340127 -45.318189 -5.716768 -1.187632 93.026951 0.430249 -4.799204 7.841692 -0.182483 -5.863433 -17.352635 -12.205922 -13.311167 0.000000 0.000000 0.000000 40.385324 -24.890338 10.611194 -78.940540 -21.502810 -17.013185 91.697947 -14.235788 6.290887 -28.030085 -6.327311 5.156999 -7.816525 -0.570263 -0.110741 0.000000 0.000000 0.000000 36.386911 -26.978407 11.635780 39.904380 8.521102 2.875816 4.909101 2.070070 0.564293 0.017498 -0.025009 1.866263 0.000000 0.000000 0.000000 6.814069 2.355871 0.963235 -7.897939 -3.745461 0.322011 -21.466251 -15.548437 -6.801689 0.000000 0.000000 0.000000 5.537337 2.332818 0.366571 4.621134 -23.741649 -9.014394 4.820608 0.171724 -3.754468 -22.212757 -17.194516 -36.923525 1.690218 -38.333890 0.279703 0.000000 0.000000 0.000000 5.154410 2.130161 1.139694 1.349946 28.342795 12.070858 -0.290974 2.261317 -0.994757 -49.651124 45.203657 19.479479 -1.636792 19.628430 1.149871 0.000000 0.000000 0.000000 
14.909533 74.008987 -55.479889 0.000000 0.000000 0.000000 37.702060 -28.713135 12.028665 -50.046531 -2.982792 0.590081 93.409209 -1.474406 -5.336831 5.876381 -2.940546 -6.582107 -35.735174 -14.375938 -3.564060 0.000000 0.000000 0.000000 39.241114 -25.827776 11.316863 -77.771915 -20.940831 -17.257675 91.317184 -14.422172 7.267000 -29.652686 -6.943212 4.508295 -7.822002 -0.348682 -0.206041 0.000000 0.000000 0.000000 35.555014 -27.982715 11.858339 39.120892 8.228378 1.827680 5.049071 2.156369 0.422733 -0.006368 -0.321929 1.786771 0.000000 0.000000 0.000000 6.850150 2.387310 0.792227 -7.137098 -3.092317 -0.315543 -21.028863 -13.748015 -7.160411 0.000000 0.000000 0.000000 5.735135 2.386665 0.141837 5.058072 -24.483470 -9.044103 4.192382 -0.379762 -3.598978 -20.167254 -14.602533 -35.911728 1.672646 -39.891570 0.152429 0.000000 0.000000 0.000000 5.355735 2.173549 0.928566 1.806949 27.448734 11.366047 -0.168550 2.037547 -1.230302 -47.720886 43.446796 19.693158 -1.662295 23.511494 1.294949 0.000000 0.000000 0.000000 
14.847225 74.711205 -54.406578 0.000000 0.000000 0.000000 36.797268 -29.036367 12.598035 -56.342674 -2.167034 1.444333 93.672090 -3.367213 -4.612858 6.418446 -6.207157 -8.726335 -55.618196 -17.527053 2.785379 0.000000 0.000000 0.000000 38.535924 -27.244798 12.352360 -76.310821 -20.191687 -17.111038 90.469646 -14.253120 7.836454 -30.626766 -7.767277 4.268580 -8.591913 -0.041086 -0.428338 0.000000 0.000000 0.000000 35.005905 -28.305902 11.918549 38.134394 7.904059 0.511312 5.234241 2.225869 0.293181 0.058613 -0.654149 1.770865 0.000000 0.000000 0.000000 6.787959 2.424480 0.651305 -6.625137 -2.527206 -0.928631 -20.628131 -11.929951 -7.358969 0.000000 0.000000 0.000000 5.939965 2.451214 -0.046708 5.554062 -25.170039 -8.650059 3.737429 -0.944633 -3.467828 -18.732388 -12.291830 -34.782923 1.523893 -41.262341 0.032110 0.000000 0.000000 0.000000 5.587864 2.237728 0.735123 2.348263 26.281157 10.463230 0.033038 1.648820 -1.346197 -46.520466 42.420174 20.063756 -1.734735 27.151762 1.542554 0.000000 0.000000 0.000000 
14.713076 75.659927 -52.794174 0.000000 0.000000 0.000000 35.914070 -28.616590 12.810844 -62.745301 -2.941735 0.789604 93.686297 -3.871859 -3.302771 7.413135 -8.055690 -10.338273 -70.415241 -18.769877 4.786608 0.000000 0.000000 0.000000 37.983020 -28.461955 13.221782 -74.116309 -19.505004 -16.756276 88.968637 -13.588766 7.755910 -31.025533 -8.750639 4.357052 -9.594768 0.287999 -0.669969 0.000000 0.000000 0.000000 34.633072 -28.182440 11.728713 37.236733 7.501330 -0.868383 5.443257 2.250951 0.199568 0.075782 -0.797438 1.833371 0.000000 0.000000 0.000000 6.702018 2.450978 0.528398 -6.431325 -2.117000 -1.452145 -20.350084 -10.206098 -7.434683 0.000000 0.000000 0.000000 6.177548 2.516942 -0.192101 6.072247 -25.871939 -7.870219 3.482201 -1.314665 -3.354154 -17.941456 -10.405687 -33.548209 1.370089 -42.590632 0.036835 0.000000 0.000000 0.000000 5.840008 2.312605 0.584529 2.865390 24.819675 9.303620 0.394483 1.273968 -1.291336 -46.190496 42.364388 20.743298 -1.863377 30.104923 1.830436 0.000000 0.000000 0.000000 
14.446258 76.973068 -50.739563 0.000000 0.000000 0.000000 35.186389 -27.925712 12.697007 -68.009956 -4.361404 -0.055237 93.871989 -2.581248 -2.621597 5.946212 -6.647623 -10.201089 -76.308806 -16.687798 4.413077 0.000000 0.000000 0.000000 37.417904 -28.957321 13.533403 -70.791496 -18.940376 -16.293169 86.934955 -12.356919 7.081116 -31.433985 -9.844936 4.479311 -10.284473 0.555497 -0.779544 0.000000 0.000000 0.000000 34.500290 -27.848450 11.428438 36.616521 7.030615 -2.075877 5.677393 2.214213 0.130463 0.422164 -0.753854 1.955423 0.000000 0.000000 0.000000 6.673198 2.437091 0.428643 -6.576749 -1.860239 -1.834822 -20.215985 -8.666598 -7.464681 0.000000 0.000000 0.000000 6.450461 2.556387 -0.297515 6.566301 -26.628575 -6.832438 3.325818 -1.332190 -3.339449 -17.754368 -9.131959 -32.246423 1.354461 -43.956102 0.267785 0.000000 0.000000 0.000000 6.130108 2.375793 0.484658 3.296342 23.135295 7.916587 0.816462 1.024264 -1.204997 -46.954849 43.129745 22.008784 -2.030438 32.273341 2.096554 0.000000 0.000000 0.000000 
14.206499 78.424599 -48.533646 0.000000 0.000000 0.000000 34.723927 -27.122224 12.436523 -72.608025 -5.670623 0.165660 94.696400 -0.107699 -3.131402 1.985157 -2.944508 -8.401933 -73.942761 -11.996123 2.876873 0.000000 0.000000 0.000000 36.623341 -28.707162 13.272772 -66.209477 -18.591449 -15.996211 84.546588 -10.700897 6.060615 -32.317211 -10.912827 4.478339 -10.489933 0.683955 -0.681037 0.000000 0.000000 0.000000 34.502824 -27.349788 11.138457 36.351841 6.537976 -2.918699 5.864135 2.125097 0.060353 0.640150 -0.135036 2.002113 0.000000 0.000000 0.000000 6.760103 2.363172 0.336644 -6.970333 -1.728210 -2.056021 -20.213793 -7.261030 -7.505775 0.000000 0.000000 0.000000 6.705773 2.539044 -0.368374 6.929883 -27.459848 -5.785879 3.149929 -1.042042 -3.526889 -18.009261 -8.534253 -30.858364 1.603077 -45.261099 0.773670 0.000000 0.000000 0.000000 6.379071 2.385400 0.415004 3.634974 21.289551 6.239940 1.087978 0.917546 -1.081390 -48.811315 44.398357 24.047254 -2.139994 33.823879 2.244302 0.000000 0.000000 0.000000 
14.098267 80.116623 -46.026833 0.000000 0.000000 0.000000 34.418348 -26.546044 12.358485 -77.431280 -7.624468 1.895986 96.975415 1.506098 -3.576958 -0.235166 0.424489 -7.681795 -67.156961 -6.502441 0.586481 0.000000 0.000000 0.000000 35.488031 -27.781873 12.735030 -60.728626 -18.450745 -16.175061 82.099195 -8.727295 4.889858 -33.576872 -11.965802 4.475102 -10.357949 0.678091 -0.435654 0.000000 0.000000 0.000000 34.742737 -26.837347 11.220899 36.417168 5.994698 -3.339180 5.923634 1.972531 -0.047692 0.912943 0.483515 1.902091 0.000000 0.000000 0.000000 6.923935 2.216200 0.238754 -7.538430 -1.669975 -2.119022 -20.311944 -5.973277 -7.604830 0.000000 0.000000 0.000000 6.898013 2.432263 -0.430479 7.108110 -28.361734 -4.886329 2.888183 -0.405160 -3.802092 -18.592274 -8.659106 -29.288818 2.079246 -46.190732 1.449953 0.000000 0.000000 0.000000 6.565220 2.306490 0.358025 3.878240 19.357863 4.246592 1.065615 0.959004 -1.075063 -51.606471 45.644016 26.861560 -2.154606 35.105567 2.249608 0.000000 0.000000 0.000000 
14.134013 81.809074 -43.173973 0.000000 0.000000 0.000000 33.882499 -25.858760 12.462968 -83.193036 -9.959784 5.274976 99.917123 0.838304 -3.050196 1.544308 1.985937 -10.242082 -59.678211 -1.849482 -1.562836 0.000000 0.000000 0.000000 34.235685 -26.800197 12.522513 -55.066853 -18.310233 -16.898503 79.502015 -6.460919 3.717139 -34.878600 -12.819978 4.954737 -10.239317 0.589886 -0.180192 0.000000 0.000000 0.000000 35.080128 -26.227187 11.878284 36.680483 5.422502 -3.397532 5.829099 1.782349 -0.212499 0.990838 0.915202 1.447544 0.000000 0.000000 0.000000 7.094333 2.004521 0.136037 -8.124428 -1.663012 -2.054344 -20.399776 -4.803623 -7.746682 0.000000 0.000000 0.000000 6.999748 2.225588 -0.500671 7.078815 -29.268279 -4.221413 2.551830 0.364354 -3.983084 -19.416870 -9.476883 -27.351988 2.595286 -46.400863 2.088694 0.000000 0.000000 0.000000 6.663537 2.133842 0.286752 4.065445 17.550451 2.021010 0.741466 1.155421 -1.039154 -54.804345 46.495983 29.939963 -2.030825 36.209893 2.098192 0.000000 0.000000 0.000000 
